<svg xmlns="http://www.w3.org/2000/svg" viewBox="0 0 32 32" id="Chat"><path fill="#d85b53" d="M25.977 12.213a9.743 9.743 0 0 1-.883 3.889C27.977 16.582 28 18.93 28 20c0 .992 0 4-3.996 4H20a7.999 7.999 0 0 0-6.398 3.203A4.02 4.02 0 0 1 12 24v-4c0-.791.141-1.414.359-1.928-.117-.021-.234-.072-.359-.072H8.203a9.754 9.754 0 0 0-.199 2v4c0 4.418 3.578 8 7.996 8 0-2.211 1.789-4 4-4h4.004C28 28 32 25.75 32 20c0-4.893-2.781-7.16-6.023-7.787z" class="color4e4e50 svgShape"></path><path fill="#d85b53" d="M16 4c1.492 0 4 .52 4 4v4a4.004 4.004 0 0 1-1.602 3.201A8.002 8.002 0 0 0 12 12H8.004C4 12 4 8.99 4 8c0-1.195 0-4 4.004-4H16m0-4H8.004C4 0 0 2.125 0 8c0 5.75 4 8 8.004 8H12a4 4 0 0 1 4 4c4.418 0 8.004-3.582 8.004-8V8C24.004 2.479 20 0 16 0z" class="color4e4e50 svgShape"></path></svg>